<svg width="168" height="45" viewBox="0 0 168 45" fill="none" xmlns="http://www.w3.org/2000/svg">
<path d="M4.58569 37.5157H0V22.5391H4.58569C8.73738 22.5391 12.1043 25.8911 12.1043 30.0274C12.1043 34.1637 8.73738 37.5157 4.58569 37.5157Z" fill="#00DBDB"/>
<path d="M39.4599 0.472656H28.2182C24.9113 0.472656 22.2295 3.14366 22.2295 6.43721V6.6982C22.2295 10.318 25.1747 13.2513 28.8091 13.2513H39.4586V0.472656H39.4599Z" fill="#CEE95C"/>
<path d="M12.874 0.453125H0V13.2753C0 16.4832 2.61084 19.0835 5.83174 19.0835C9.05264 19.0835 11.6635 16.4832 11.6635 13.2753V12.071H12.8727C16.0936 12.071 18.7044 9.47065 18.7044 6.26272C18.7058 3.05344 16.0949 0.453125 12.874 0.453125Z" fill="#FF6D66"/>
<path d="M59.8022 27.4403C59.8022 24.3262 57.2241 22.54 54.0605 22.54C50.8969 22.54 48.3189 24.3262 48.3189 27.4403C48.3189 30.5544 50.8492 32.2957 54.0605 32.2957C57.2719 32.2957 59.8022 30.5096 59.8022 27.4403ZM66.5661 27.4403C66.5661 33.485 61.1656 37.5153 54.0619 37.5153C46.9582 37.5153 41.6055 33.485 41.6055 27.4403C41.6055 21.3955 46.9568 17.3652 54.0619 17.3652C61.167 17.3652 66.5661 21.3045 66.5661 27.4403Z" fill="#006865"/>
<path d="M85.6876 24.0056C84.8114 23.8683 84.2287 23.7772 83.1573 23.7772C78.9729 23.7772 75.9567 25.3798 75.9567 29.5474V37.5454H69.0959L69.085 17.2988H75.9458L75.958 21.166C77.7582 18.7383 80.0933 17.64 83.4507 17.64C84.3747 17.64 85.0079 17.7324 85.689 17.8235V24.0069L85.6876 24.0056Z" fill="#006865"/>
<path d="M104.517 24.0056C103.641 23.8683 103.058 23.7772 101.987 23.7772C97.8023 23.7772 94.7862 25.3798 94.7862 29.5474V37.5454H87.9254L87.9131 17.2988H94.7739L94.7848 21.166C96.5849 18.7383 98.9201 17.64 102.277 17.64C103.201 17.64 103.835 17.7324 104.516 17.8235V24.0069L104.517 24.0056Z" fill="#006865"/>
<path d="M123.201 25.3328C123.055 23.5467 121.303 22.2187 118.189 22.2187C115.513 22.2187 113.274 22.9513 112.497 25.3328H123.201ZM105.296 27.3935C105.296 21.6233 110.503 17.3633 117.849 17.3633C125.196 17.3633 129.868 21.8979 129.868 27.3935V28.9961H112.06C112.595 31.2403 114.736 32.5234 118.238 32.5234C121.45 32.5234 126.315 31.6983 128.456 30.8746V35.6838C126.753 36.5089 123.056 37.5161 118.287 37.5161C110.406 37.5161 105.296 33.3485 105.296 27.3948" fill="#006865"/>
<path d="M153.208 30.737V12.2344H159.971V17.2977H167.756V23.1508H159.971V29.3179C159.971 31.1502 161.041 31.9277 163.474 31.9277C164.982 31.9277 166.637 31.6532 167.999 31.1489V36.461C166.149 37.1488 164.738 37.4234 161.43 37.4234C156.661 37.4234 153.207 35.1792 153.207 30.737" fill="#006865"/>
<path d="M26.1177 31.6656C23.7525 31.6656 21.835 29.7558 21.835 27.4001V27.0481C21.835 24.8963 23.586 23.1523 25.7465 23.1523H39.4585V17.3047H25.7588C20.1003 17.3047 15.5146 21.8733 15.5146 27.5075C15.5146 33.1418 20.0116 37.5132 25.5609 37.5132H39.4599V31.6656H26.1191H26.1177Z" fill="#006865"/>
<path d="M143.015 31.6656C140.65 31.6656 138.732 29.7558 138.732 27.4001V27.0481C138.732 24.8963 140.483 23.1523 142.644 23.1523H149.684V17.3047H142.656C136.999 17.3047 132.412 21.8733 132.412 27.5075C132.412 33.1418 136.909 37.5132 142.458 37.5132H149.684V31.6656H143.014H143.015Z" fill="#006865"/>
</svg>
