<?xml version="1.0" encoding="UTF-8"?><svg id="Layer_2" xmlns="http://www.w3.org/2000/svg" viewBox="0 0 749.9 149.36"><defs><style>.cls-1{fill:#6e48c3;}.cls-1,.cls-2{stroke-width:0px;}.cls-2{fill:#faf5fa;}</style></defs><g id="Layer_1-2"><g id="horz-logo"><path class="cls-2" d="M91.56,66.19c8.25,2.94,14.7,7.47,19.34,13.61,4.64,6.14,6.96,14.46,6.96,24.96,0,8.05-2.29,15.48-6.85,22.3-4.57,6.82-11.29,12.24-20.15,16.27-8.87,4.02-19.51,6.03-31.92,6.03s-23.67-2.46-32.53-7.36c-8.87-4.91-15.48-11.32-19.85-19.23-4.37-7.91-6.55-16.5-6.55-25.78h27.01c.27,7.64,2.73,14.46,7.37,20.46,4.64,6,12.82,9,24.55,9,7.37,0,13.4-1.05,18.11-3.17,4.71-2.11,8.05-4.71,10.03-7.77,1.98-3.07,2.97-6.1,2.97-9.1,0-5.32-2.25-9.65-6.75-12.99-4.5-3.34-12.62-5.76-24.35-7.26-13.5-1.77-24.18-4.47-32.02-8.08-7.85-3.61-13.47-8.25-16.88-13.91-3.41-5.66-5.11-12.72-5.11-21.18,0-7.5,2.18-14.39,6.55-20.67,4.36-6.27,10.67-11.22,18.93-14.83,8.25-3.61,17.9-5.42,28.95-5.42,11.87,0,21.76,2.11,29.67,6.34,7.91,4.23,13.78,9.82,17.6,16.78,3.82,6.96,5.8,14.53,5.93,22.71h-26.4c0-5.86-2.18-11.15-6.55-15.86-4.37-4.71-11.25-7.06-20.67-7.06s-16.16,1.77-20.26,5.32c-4.09,3.55-6.14,7.37-6.14,11.46,0,9.82,9.34,15.76,28.03,17.8,12.41,1.5,22.74,3.72,31,6.65"/><path class="cls-2" d="M225.27,49.72c6.96,7.78,10.44,19.17,10.44,34.17v63.84h-26.19v-54.83c0-11.73-1.57-19.85-4.71-24.35-3.14-4.5-8.26-6.75-15.35-6.75-5.05,0-9.79,1.77-14.22,5.32-4.43,3.55-8.02,8.53-10.74,14.94-2.73,6.41-4.09,13.64-4.09,21.69v43.99h-26.19V.41h26.19v46.04c0,3.14-.27,5.8-.82,7.98-.55,2.18-1.36,4.44-2.46,6.75-.68,1.64-1.02,2.73-1.02,3.27,0,1.23.54,1.91,1.64,2.05h.61c.95,0,1.77-.82,2.45-2.45,3-6.68,7.64-12.69,13.91-18.01,6.27-5.32,13.64-7.98,22.1-7.98,12,0,21.48,3.89,28.44,11.66"/><path class="cls-2" d="M264.35,137.7c-6.96-7.77-10.44-19.16-10.44-34.17v-63.84h26.19v54.83c0,11.73,1.57,19.85,4.71,24.35,3.14,4.5,8.25,6.75,15.35,6.75,5.05,0,9.79-1.77,14.22-5.32,4.43-3.54,8.01-8.52,10.74-14.94,2.73-6.41,4.09-13.64,4.09-21.69v-43.99h26.19v108.03h-26.19v-6.75c0-3,.27-5.55.82-7.67.54-2.11,1.36-4.47,2.46-7.06.68-1.77,1.02-2.87,1.02-3.27,0-1.23-.55-1.91-1.64-2.05h-.61c-.96,0-1.77.82-2.45,2.45-3.41,6.82-8.15,12.86-14.22,18.11-6.07,5.25-13.33,7.88-21.79,7.88-12.01,0-21.48-3.89-28.44-11.66"/><path class="cls-2" d="M417.09,24.04c-1.43.48-2.32,1.5-2.66,3.07-.34,1.57-.51,4.54-.51,8.9v3.68h29.46v22.92h-29.46v85.12h-26.19V62.61h-16.37v-22.92h16.37v-6.14c0-8.59,1.12-15.28,3.38-20.05,2.25-4.77,5.69-8.15,10.33-10.13,4.63-1.98,10.71-2.97,18.21-2.97h23.74v22.92h-18.21c-3.96,0-6.65.24-8.08.72"/><path class="cls-2" d="M503.23,24.04c-1.43.48-2.32,1.5-2.66,3.07-.34,1.57-.51,4.54-.51,8.9v3.68h29.46v22.92h-29.46v85.12h-26.19V62.61h-16.37v-22.92h16.37v-6.14c0-8.59,1.13-15.28,3.38-20.05,2.25-4.77,5.69-8.15,10.33-10.13,4.64-1.98,10.71-2.97,18.21-2.97h23.73v22.92h-18.21c-3.96,0-6.65.24-8.08.72"/><rect class="cls-2" x="549.78" y=".41" width="26.19" height="147.32"/><rect class="cls-2" x="605.23" y=".41" width="26.19" height="147.32"/><path class="cls-1" d="M668.73,148.14l-15.6-18.5,63.9-53.89c1.04-.88,1.04-2.48,0-3.36l-63.9-53.89,15.6-18.5,76.86,64.82c3.41,2.88,5.02,7.45,4,11.95-.6,2.66-2.17,5.01-4.26,6.77l-76.6,64.6Z"/></g></g></svg>